<mxfile host="app.diagrams.net" modified="2023-06-17T23:30:50.663Z" agent="Mozilla/5.0 (Macintosh; Intel Mac OS X 10_15_7) AppleWebKit/537.36 (KHTML, like Gecko) Chrome/114.0.0.0 Safari/537.36" etag="ShcziUmkIJx4ZdRibS5j" version="21.4.0" type="device">
  <diagram name="Page-1" id="tDmu0Z0gBo1njNn-WTa-">
    <mxGraphModel dx="1434" dy="796" grid="1" gridSize="10" guides="1" tooltips="1" connect="1" arrows="1" fold="1" page="1" pageScale="1" pageWidth="850" pageHeight="1100" math="0" shadow="0">
      <root>
        <mxCell id="0" />
        <mxCell id="1" parent="0" />
        <mxCell id="U0tlHdCXnId1E5SqcMwu-1" value="" style="image;points=[];aspect=fixed;html=1;align=center;shadow=0;dashed=0;image=img/lib/allied_telesis/computer_and_terminals/Personal_Computer_with_Server.svg;" parent="1" vertex="1">
          <mxGeometry x="170" y="210.2" width="62.400000000000006" height="62.400000000000006" as="geometry" />
        </mxCell>
        <mxCell id="U0tlHdCXnId1E5SqcMwu-2" value="" style="image;points=[];aspect=fixed;html=1;align=center;shadow=0;dashed=0;image=img/lib/allied_telesis/computer_and_terminals/Personal_Computer_with_Server.svg;" parent="1" vertex="1">
          <mxGeometry x="170" y="300.2" width="62.400000000000006" height="62.400000000000006" as="geometry" />
        </mxCell>
        <mxCell id="U0tlHdCXnId1E5SqcMwu-3" value="" style="image;points=[];aspect=fixed;html=1;align=center;shadow=0;dashed=0;image=img/lib/allied_telesis/computer_and_terminals/Personal_Computer_with_Server.svg;" parent="1" vertex="1">
          <mxGeometry x="170" y="390.2" width="62.400000000000006" height="62.400000000000006" as="geometry" />
        </mxCell>
        <mxCell id="U0tlHdCXnId1E5SqcMwu-4" value="" style="outlineConnect=0;dashed=0;verticalLabelPosition=bottom;verticalAlign=top;align=center;html=1;shape=mxgraph.aws3.application_load_balancer;fillColor=#F58536;gradientColor=none;" parent="1" vertex="1">
          <mxGeometry x="290" y="300.4" width="60" height="62" as="geometry" />
        </mxCell>
        <mxCell id="U0tlHdCXnId1E5SqcMwu-6" value="" style="outlineConnect=0;dashed=0;verticalLabelPosition=bottom;verticalAlign=top;align=center;html=1;shape=mxgraph.aws3.ec2_compute_container_3;fillColor=#F58534;gradientColor=none;" parent="1" vertex="1">
          <mxGeometry x="410" y="224.14999999999998" width="60" height="34.5" as="geometry" />
        </mxCell>
        <mxCell id="U0tlHdCXnId1E5SqcMwu-8" value="" style="outlineConnect=0;dashed=0;verticalLabelPosition=bottom;verticalAlign=top;align=center;html=1;shape=mxgraph.aws3.ec2_compute_container_3;fillColor=#F58534;gradientColor=none;" parent="1" vertex="1">
          <mxGeometry x="410" y="404.15" width="60" height="34.5" as="geometry" />
        </mxCell>
        <mxCell id="U0tlHdCXnId1E5SqcMwu-10" value="" style="endArrow=classic;html=1;rounded=0;exitX=1.01;exitY=0.561;exitDx=0;exitDy=0;exitPerimeter=0;entryX=0;entryY=0.5;entryDx=0;entryDy=0;entryPerimeter=0;strokeWidth=1;strokeColor=#000000;" parent="1" source="U0tlHdCXnId1E5SqcMwu-1" target="U0tlHdCXnId1E5SqcMwu-4" edge="1">
          <mxGeometry width="50" height="50" relative="1" as="geometry">
            <mxPoint x="440" y="390" as="sourcePoint" />
            <mxPoint x="490" y="340" as="targetPoint" />
            <Array as="points">
              <mxPoint x="270" y="245" />
            </Array>
          </mxGeometry>
        </mxCell>
        <mxCell id="U0tlHdCXnId1E5SqcMwu-11" value="" style="endArrow=classic;html=1;rounded=0;exitX=1.01;exitY=0.497;exitDx=0;exitDy=0;exitPerimeter=0;entryX=0;entryY=0.5;entryDx=0;entryDy=0;entryPerimeter=0;strokeWidth=1;strokeColor=#000000;" parent="1" source="U0tlHdCXnId1E5SqcMwu-2" target="U0tlHdCXnId1E5SqcMwu-4" edge="1">
          <mxGeometry width="50" height="50" relative="1" as="geometry">
            <mxPoint x="440" y="390" as="sourcePoint" />
            <mxPoint x="490" y="340" as="targetPoint" />
          </mxGeometry>
        </mxCell>
        <mxCell id="U0tlHdCXnId1E5SqcMwu-12" value="" style="endArrow=classic;html=1;rounded=0;exitX=1.042;exitY=0.561;exitDx=0;exitDy=0;exitPerimeter=0;entryX=0;entryY=0.5;entryDx=0;entryDy=0;entryPerimeter=0;strokeWidth=1;strokeColor=#000000;" parent="1" source="U0tlHdCXnId1E5SqcMwu-3" target="U0tlHdCXnId1E5SqcMwu-4" edge="1">
          <mxGeometry width="50" height="50" relative="1" as="geometry">
            <mxPoint x="440" y="390" as="sourcePoint" />
            <mxPoint x="490" y="340" as="targetPoint" />
            <Array as="points">
              <mxPoint x="270" y="425" />
            </Array>
          </mxGeometry>
        </mxCell>
        <mxCell id="U0tlHdCXnId1E5SqcMwu-18" value="" style="verticalLabelPosition=bottom;html=1;verticalAlign=top;align=center;strokeColor=none;fillColor=#FF9999;shape=mxgraph.azure.database;" parent="1" vertex="1">
          <mxGeometry x="421.25" y="306.4" width="37.5" height="50" as="geometry" />
        </mxCell>
        <mxCell id="Qzg_5kur9ORvRKsmjB6t-1" value="" style="outlineConnect=0;dashed=0;verticalLabelPosition=bottom;verticalAlign=top;align=center;html=1;shape=mxgraph.aws3.ec2_compute_container_2;fillColor=#9AC7BF;gradientColor=none;" parent="1" vertex="1">
          <mxGeometry x="660" y="224.14999999999998" width="60" height="34.5" as="geometry" />
        </mxCell>
        <mxCell id="Qzg_5kur9ORvRKsmjB6t-3" value="" style="outlineConnect=0;dashed=0;verticalLabelPosition=bottom;verticalAlign=top;align=center;html=1;shape=mxgraph.aws3.ec2_compute_container_2;fillColor=#9AC7BF;gradientColor=none;" parent="1" vertex="1">
          <mxGeometry x="660" y="404.15" width="60" height="34.5" as="geometry" />
        </mxCell>
        <mxCell id="DkidavP7fFSYTehDGUJn-1" value="" style="verticalLabelPosition=bottom;html=1;verticalAlign=top;align=center;strokeColor=none;fillColor=#00BEF2;shape=mxgraph.azure.database;" vertex="1" parent="1">
          <mxGeometry x="550" y="396.4" width="37.5" height="50" as="geometry" />
        </mxCell>
        <mxCell id="DkidavP7fFSYTehDGUJn-2" value="" style="verticalLabelPosition=bottom;html=1;verticalAlign=top;align=center;strokeColor=none;fillColor=#00BEF2;shape=mxgraph.azure.database;" vertex="1" parent="1">
          <mxGeometry x="550" y="216.39999999999998" width="37.5" height="50" as="geometry" />
        </mxCell>
        <mxCell id="DkidavP7fFSYTehDGUJn-3" value="" style="endArrow=classic;html=1;rounded=0;entryX=0;entryY=0.5;entryDx=0;entryDy=0;entryPerimeter=0;exitX=1;exitY=0.5;exitDx=0;exitDy=0;exitPerimeter=0;" edge="1" parent="1" source="U0tlHdCXnId1E5SqcMwu-4" target="U0tlHdCXnId1E5SqcMwu-6">
          <mxGeometry width="50" height="50" relative="1" as="geometry">
            <mxPoint x="400" y="430" as="sourcePoint" />
            <mxPoint x="450" y="380" as="targetPoint" />
          </mxGeometry>
        </mxCell>
        <mxCell id="DkidavP7fFSYTehDGUJn-4" value="" style="endArrow=classic;html=1;rounded=0;exitX=1;exitY=0.5;exitDx=0;exitDy=0;exitPerimeter=0;entryX=0;entryY=0.5;entryDx=0;entryDy=0;entryPerimeter=0;" edge="1" parent="1" source="U0tlHdCXnId1E5SqcMwu-4" target="U0tlHdCXnId1E5SqcMwu-8">
          <mxGeometry width="50" height="50" relative="1" as="geometry">
            <mxPoint x="400" y="430" as="sourcePoint" />
            <mxPoint x="450" y="380" as="targetPoint" />
          </mxGeometry>
        </mxCell>
        <mxCell id="DkidavP7fFSYTehDGUJn-5" value="" style="endArrow=classic;html=1;rounded=0;entryX=0.5;entryY=1;entryDx=0;entryDy=0;entryPerimeter=0;exitX=0.5;exitY=0;exitDx=0;exitDy=0;exitPerimeter=0;startArrow=none;startFill=0;" edge="1" parent="1" source="U0tlHdCXnId1E5SqcMwu-8" target="U0tlHdCXnId1E5SqcMwu-18">
          <mxGeometry width="50" height="50" relative="1" as="geometry">
            <mxPoint x="400" y="430" as="sourcePoint" />
            <mxPoint x="450" y="380" as="targetPoint" />
          </mxGeometry>
        </mxCell>
        <mxCell id="DkidavP7fFSYTehDGUJn-10" value="Escrita" style="edgeLabel;html=1;align=center;verticalAlign=middle;resizable=0;points=[];" vertex="1" connectable="0" parent="DkidavP7fFSYTehDGUJn-5">
          <mxGeometry x="-0.0304" relative="1" as="geometry">
            <mxPoint as="offset" />
          </mxGeometry>
        </mxCell>
        <mxCell id="DkidavP7fFSYTehDGUJn-6" value="" style="endArrow=classic;html=1;rounded=0;exitX=0.5;exitY=1;exitDx=0;exitDy=0;exitPerimeter=0;entryX=0.5;entryY=0;entryDx=0;entryDy=0;entryPerimeter=0;startArrow=none;startFill=0;endFill=1;" edge="1" parent="1" source="U0tlHdCXnId1E5SqcMwu-6" target="U0tlHdCXnId1E5SqcMwu-18">
          <mxGeometry width="50" height="50" relative="1" as="geometry">
            <mxPoint x="400" y="430" as="sourcePoint" />
            <mxPoint x="450" y="380" as="targetPoint" />
          </mxGeometry>
        </mxCell>
        <mxCell id="DkidavP7fFSYTehDGUJn-9" value="Escrita" style="edgeLabel;html=1;align=center;verticalAlign=middle;resizable=0;points=[];" vertex="1" connectable="0" parent="DkidavP7fFSYTehDGUJn-6">
          <mxGeometry x="0.0199" y="-1" relative="1" as="geometry">
            <mxPoint as="offset" />
          </mxGeometry>
        </mxCell>
        <mxCell id="DkidavP7fFSYTehDGUJn-7" value="" style="endArrow=classic;html=1;rounded=0;startArrow=none;startFill=0;" edge="1" parent="1">
          <mxGeometry width="50" height="50" relative="1" as="geometry">
            <mxPoint x="470" y="241" as="sourcePoint" />
            <mxPoint x="550" y="241" as="targetPoint" />
          </mxGeometry>
        </mxCell>
        <mxCell id="DkidavP7fFSYTehDGUJn-11" value="Leitura" style="edgeLabel;html=1;align=center;verticalAlign=middle;resizable=0;points=[];" vertex="1" connectable="0" parent="DkidavP7fFSYTehDGUJn-7">
          <mxGeometry x="-0.05" relative="1" as="geometry">
            <mxPoint as="offset" />
          </mxGeometry>
        </mxCell>
        <mxCell id="DkidavP7fFSYTehDGUJn-8" value="" style="endArrow=classic;html=1;rounded=0;startArrow=none;startFill=0;" edge="1" parent="1">
          <mxGeometry width="50" height="50" relative="1" as="geometry">
            <mxPoint x="470" y="421" as="sourcePoint" />
            <mxPoint x="550" y="421" as="targetPoint" />
          </mxGeometry>
        </mxCell>
        <mxCell id="DkidavP7fFSYTehDGUJn-12" value="Leitura" style="edgeLabel;html=1;align=center;verticalAlign=middle;resizable=0;points=[];" vertex="1" connectable="0" parent="DkidavP7fFSYTehDGUJn-8">
          <mxGeometry x="-0.05" relative="1" as="geometry">
            <mxPoint as="offset" />
          </mxGeometry>
        </mxCell>
        <mxCell id="DkidavP7fFSYTehDGUJn-13" value="" style="endArrow=none;html=1;rounded=0;startArrow=classic;startFill=1;endFill=0;" edge="1" parent="1">
          <mxGeometry width="50" height="50" relative="1" as="geometry">
            <mxPoint x="590" y="241" as="sourcePoint" />
            <mxPoint x="660" y="241" as="targetPoint" />
          </mxGeometry>
        </mxCell>
        <mxCell id="DkidavP7fFSYTehDGUJn-15" value="Leitura" style="edgeLabel;html=1;align=center;verticalAlign=middle;resizable=0;points=[];" vertex="1" connectable="0" parent="DkidavP7fFSYTehDGUJn-13">
          <mxGeometry x="-0.1429" relative="1" as="geometry">
            <mxPoint x="8" as="offset" />
          </mxGeometry>
        </mxCell>
        <mxCell id="DkidavP7fFSYTehDGUJn-14" value="" style="endArrow=none;html=1;rounded=0;startArrow=classic;startFill=1;endFill=0;" edge="1" parent="1">
          <mxGeometry width="50" height="50" relative="1" as="geometry">
            <mxPoint x="590" y="421" as="sourcePoint" />
            <mxPoint x="660" y="421" as="targetPoint" />
          </mxGeometry>
        </mxCell>
        <mxCell id="DkidavP7fFSYTehDGUJn-16" value="Leitura" style="edgeLabel;html=1;align=center;verticalAlign=middle;resizable=0;points=[];" vertex="1" connectable="0" parent="DkidavP7fFSYTehDGUJn-14">
          <mxGeometry x="-0.2" relative="1" as="geometry">
            <mxPoint x="10" as="offset" />
          </mxGeometry>
        </mxCell>
        <mxCell id="DkidavP7fFSYTehDGUJn-17" value="" style="endArrow=classic;html=1;rounded=0;entryX=0.5;entryY=1;entryDx=0;entryDy=0;entryPerimeter=0;exitX=1;exitY=0.5;exitDx=0;exitDy=0;exitPerimeter=0;" edge="1" parent="1" source="U0tlHdCXnId1E5SqcMwu-18" target="DkidavP7fFSYTehDGUJn-2">
          <mxGeometry width="50" height="50" relative="1" as="geometry">
            <mxPoint x="400" y="390" as="sourcePoint" />
            <mxPoint x="450" y="340" as="targetPoint" />
          </mxGeometry>
        </mxCell>
        <mxCell id="DkidavP7fFSYTehDGUJn-20" value="Replicação" style="edgeLabel;html=1;align=center;verticalAlign=middle;resizable=0;points=[];" vertex="1" connectable="0" parent="DkidavP7fFSYTehDGUJn-17">
          <mxGeometry x="0.0455" relative="1" as="geometry">
            <mxPoint x="-5" as="offset" />
          </mxGeometry>
        </mxCell>
        <mxCell id="DkidavP7fFSYTehDGUJn-18" value="" style="endArrow=classic;html=1;rounded=0;entryX=0.5;entryY=0;entryDx=0;entryDy=0;entryPerimeter=0;exitX=1;exitY=0.5;exitDx=0;exitDy=0;exitPerimeter=0;" edge="1" parent="1" source="U0tlHdCXnId1E5SqcMwu-18" target="DkidavP7fFSYTehDGUJn-1">
          <mxGeometry width="50" height="50" relative="1" as="geometry">
            <mxPoint x="400" y="390" as="sourcePoint" />
            <mxPoint x="450" y="340" as="targetPoint" />
          </mxGeometry>
        </mxCell>
        <mxCell id="DkidavP7fFSYTehDGUJn-19" value="Replicação" style="edgeLabel;html=1;align=center;verticalAlign=middle;resizable=0;points=[];" vertex="1" connectable="0" parent="DkidavP7fFSYTehDGUJn-18">
          <mxGeometry x="-0.0442" y="-1" relative="1" as="geometry">
            <mxPoint as="offset" />
          </mxGeometry>
        </mxCell>
      </root>
    </mxGraphModel>
  </diagram>
</mxfile>
